<?xml version="1.0" encoding="utf-8"?>
<svg version="1.1" xmlns:xlink="http://www.w3.org/1999/xlink" width="1568px" height="124px" xmlns="http://www.w3.org/2000/svg">
  <defs>
    <filter x="8px" y="51px" width="1568px" height="124px" filterUnits="userSpaceOnUse" id="filter32">
      <feOffset dx="0" dy="2" in="SourceAlpha" result="shadowOffsetInner" />
      <feGaussianBlur stdDeviation="7.5" in="shadowOffsetInner" result="shadowGaussian" />
      <feComposite in2="shadowGaussian" operator="atop" in="SourceAlpha" result="shadowComposite" />
      <feColorMatrix type="matrix" values="0 0 0 0 0  0 0 0 0 0  0 0 0 0 0  0 0 0 0.2 0  " in="shadowComposite" />
    </filter>
    <g id="widget33">
      <path d="M 24 68  A 3 3 0 0 1 27 65 L 1557 65  A 3 3 0 0 1 1560 68 L 1560 154  A 3 3 0 0 1 1557 157 L 27 157  A 3 3 0 0 1 24 154 L 24 68  Z " fill-rule="nonzero" fill="#ffffff" stroke="none" />
      <path d="M 23.5 68  A 3.5 3.5 0 0 1 27 64.5 L 1557 64.5  A 3.5 3.5 0 0 1 1560.5 68 L 1560.5 154  A 3.5 3.5 0 0 1 1557 157.5 L 27 157.5  A 3.5 3.5 0 0 1 23.5 154 L 23.5 68  Z " stroke-width="1" stroke="#ffffff" fill="none" stroke-opacity="0.996078431372549" />
    </g>
  </defs>
  <g transform="matrix(1 0 0 1 -8 -51 )">
    <use xlink:href="#widget33" filter="url(#filter32)" />
    <use xlink:href="#widget33" />
  </g>
</svg>