<?xml version="1.0" encoding="utf-8"?>
<svg version="1.1" xmlns:xlink="http://www.w3.org/1999/xlink" width="1568px" height="170px" xmlns="http://www.w3.org/2000/svg">
  <defs>
    <filter x="304px" y="134px" width="1568px" height="170px" filterUnits="userSpaceOnUse" id="filter34">
      <feOffset dx="0" dy="2" in="SourceAlpha" result="shadowOffsetInner" />
      <feGaussianBlur stdDeviation="7.5" in="shadowOffsetInner" result="shadowGaussian" />
      <feComposite in2="shadowGaussian" operator="atop" in="SourceAlpha" result="shadowComposite" />
      <feColorMatrix type="matrix" values="0 0 0 0 0  0 0 0 0 0  0 0 0 0 0  0 0 0 0.2 0  " in="shadowComposite" />
    </filter>
    <g id="widget35">
      <path d="M 320 151  A 3 3 0 0 1 323 148 L 1853 148  A 3 3 0 0 1 1856 151 L 1856 283  A 3 3 0 0 1 1853 286 L 323 286  A 3 3 0 0 1 320 283 L 320 151  Z " fill-rule="nonzero" fill="#ffffff" stroke="none" />
      <path d="M 319.5 151  A 3.5 3.5 0 0 1 323 147.5 L 1853 147.5  A 3.5 3.5 0 0 1 1856.5 151 L 1856.5 283  A 3.5 3.5 0 0 1 1853 286.5 L 323 286.5  A 3.5 3.5 0 0 1 319.5 283 L 319.5 151  Z " stroke-width="1" stroke="#ffffff" fill="none" stroke-opacity="0.996078431372549" />
    </g>
  </defs>
  <g transform="matrix(1 0 0 1 -304 -134 )">
    <use xlink:href="#widget35" filter="url(#filter34)" />
    <use xlink:href="#widget35" />
  </g>
</svg>